HIERARCHY
ROOT Hips
{
	OFFSET -14.64140 90.27770 -84.91600
	CHANNELS 6 Xposition Yposition Zposition Zrotation Xrotation Yrotation
	JOINT Spine
	{
		OFFSET 0.00000 13.20850 -1.60436
		CHANNELS 3 Zrotation Xrotation Yrotation
		JOINT Spine1
		{
			OFFSET 0.00000 8.61716 0.00000
			CHANNELS 3 Zrotation Xrotation Yrotation
			JOINT Spine2
			{
				OFFSET 0.00000 8.61717 0.00000
				CHANNELS 3 Zrotation Xrotation Yrotation
				JOINT Spine3
				{
					OFFSET 0.00000 8.61717 0.00000
					CHANNELS 3 Zrotation Xrotation Yrotation
					JOINT Neck
					{
						OFFSET 0.00000 11.07920 1.10792
						CHANNELS 3 Zrotation Xrotation Yrotation
						JOINT Neck1
						{
							OFFSET 0.00000 7.08032 0.00000
							CHANNELS 3 Zrotation Xrotation Yrotation
							JOINT Head
							{
								OFFSET 0.00000 7.08031 0.00000
								CHANNELS 3 Zrotation Xrotation Yrotation
								End site
								{
									OFFSET 0.00000 0.00000 0.00000
								}
							}
						}
					}
					JOINT RightShoulder
					{
						OFFSET -0.01000 7.91373 5.19711
						CHANNELS 3 Zrotation Xrotation Yrotation
						JOINT RightArm
						{
							OFFSET -18.41580 0.00000 0.00000
							CHANNELS 3 Zrotation Xrotation Yrotation
							JOINT RightForeArm
							{
								OFFSET -29.11090 0.00000 0.00000
								CHANNELS 3 Zrotation Xrotation Yrotation
								JOINT RightHand
								{
									OFFSET -24.65040 0.00000 0.00000
									CHANNELS 3 Zrotation Xrotation Yrotation
									JOINT RightHandThumb1
									{
										OFFSET -5.35114 -0.85590 3.97906
										CHANNELS 3 Zrotation Xrotation Yrotation
										JOINT RightHandThumb2
										{
											OFFSET -4.52789 0.00000 0.00000
											CHANNELS 3 Zrotation Xrotation Yrotation
											JOINT RightHandThumb3
											{
												OFFSET -2.46976 0.00000 0.00000
												CHANNELS 3 Zrotation Xrotation Yrotation
												End site
												{
													OFFSET 0.00000 0.00000 0.00000
												}
											}
										}
									}
									JOINT RightHandIndex1
									{
										OFFSET -14.26970 0.00000 2.88139
										CHANNELS 3 Zrotation Xrotation Yrotation
										JOINT RightHandIndex2
										{
											OFFSET -5.48836 0.00000 0.00000
											CHANNELS 3 Zrotation Xrotation Yrotation
											JOINT RightHandIndex3
											{
												OFFSET -3.01859 0.00000 0.00000
												CHANNELS 3 Zrotation Xrotation Yrotation
												End site
												{
													OFFSET 0.00000 0.00000 0.00000
												}
											}
										}
									}
									JOINT RightHandMiddle1
									{
										OFFSET -14.26970 0.00000 -0.09147
										CHANNELS 3 Zrotation Xrotation Yrotation
										JOINT RightHandMiddle2
										{
											OFFSET -6.17441 0.00000 0.00000
											CHANNELS 3 Zrotation Xrotation Yrotation
											JOINT RightHandMiddle3
											{
												OFFSET -3.56743 0.00000 0.00000
												CHANNELS 3 Zrotation Xrotation Yrotation
												End site
												{
													OFFSET 0.00000 0.00000 0.00000
												}
											}
										}
									}
									JOINT RightHandRing1
									{
										OFFSET -12.69180 0.00000 -3.06433
										CHANNELS 3 Zrotation Xrotation Yrotation
										JOINT RightHandRing2
										{
											OFFSET -5.62556 0.00000 0.00000
											CHANNELS 3 Zrotation Xrotation Yrotation
											JOINT RightHandRing3
											{
												OFFSET -3.56744 0.00000 0.00000
												CHANNELS 3 Zrotation Xrotation Yrotation
												End site
												{
													OFFSET 0.00000 0.00000 0.00000
												}
											}
										}
									}
									JOINT RightHandPinky1
									{
										OFFSET -11.11390 0.00000 -6.03719
										CHANNELS 3 Zrotation Xrotation Yrotation
										JOINT RightHandPinky2
										{
											OFFSET -4.52789 0.00000 0.00000
											CHANNELS 3 Zrotation Xrotation Yrotation
											JOINT RightHandPinky3
											{
												OFFSET -2.46976 0.00000 0.00000
												CHANNELS 3 Zrotation Xrotation Yrotation
												End site
												{
													OFFSET 0.00000 0.00000 0.00000
												}
											}
										}
									}
								}
							}
						}
					}
					JOINT LeftShoulder
					{
						OFFSET 0.01000 7.91373 5.19711
						CHANNELS 3 Zrotation Xrotation Yrotation
						JOINT LeftArm
						{
							OFFSET 18.41580 0.00000 0.00000
							CHANNELS 3 Zrotation Xrotation Yrotation
							JOINT LeftForeArm
							{
								OFFSET 29.11090 0.00000 0.00000
								CHANNELS 3 Zrotation Xrotation Yrotation
								JOINT LeftHand
								{
									OFFSET 24.65040 0.00000 0.00000
									CHANNELS 3 Zrotation Xrotation Yrotation
									JOINT LeftHandThumb1
									{
										OFFSET 5.35114 -0.85590 3.97906
										CHANNELS 3 Zrotation Xrotation Yrotation
										JOINT LeftHandThumb2
										{
											OFFSET 4.52789 0.00000 0.00000
											CHANNELS 3 Zrotation Xrotation Yrotation
											JOINT LeftHandThumb3
											{
												OFFSET 2.46977 0.00000 0.00000
												CHANNELS 3 Zrotation Xrotation Yrotation
												End site
												{
													OFFSET 0.00000 0.00000 0.00000
												}
											}
										}
									}
									JOINT LeftHandIndex1
									{
										OFFSET 14.26970 0.00000 2.88139
										CHANNELS 3 Zrotation Xrotation Yrotation
										JOINT LeftHandIndex2
										{
											OFFSET 5.48836 0.00000 0.00000
											CHANNELS 3 Zrotation Xrotation Yrotation
											JOINT LeftHandIndex3
											{
												OFFSET 3.01859 0.00000 0.00000
												CHANNELS 3 Zrotation Xrotation Yrotation
												End site
												{
													OFFSET 0.00000 0.00000 0.00000
												}
											}
										}
									}
									JOINT LeftHandMiddle1
									{
										OFFSET 14.26970 0.00000 -0.09147
										CHANNELS 3 Zrotation Xrotation Yrotation
										JOINT LeftHandMiddle2
										{
											OFFSET 6.17440 0.00000 0.00000
											CHANNELS 3 Zrotation Xrotation Yrotation
											JOINT LeftHandMiddle3
											{
												OFFSET 3.56744 0.00000 0.00000
												CHANNELS 3 Zrotation Xrotation Yrotation
												End site
												{
													OFFSET 0.00000 0.00000 0.00000
												}
											}
										}
									}
									JOINT LeftHandRing1
									{
										OFFSET 12.69180 0.00000 -3.06433
										CHANNELS 3 Zrotation Xrotation Yrotation
										JOINT LeftHandRing2
										{
											OFFSET 5.62556 0.00000 0.00000
											CHANNELS 3 Zrotation Xrotation Yrotation
											JOINT LeftHandRing3
											{
												OFFSET 3.56744 0.00000 0.00000
												CHANNELS 3 Zrotation Xrotation Yrotation
												End site
												{
													OFFSET 0.00000 0.00000 0.00000
												}
											}
										}
									}
									JOINT LeftHandPinky1
									{
										OFFSET 11.11390 0.00000 -6.03719
										CHANNELS 3 Zrotation Xrotation Yrotation
										JOINT LeftHandPinky2
										{
											OFFSET 4.52789 0.00000 0.00000
											CHANNELS 3 Zrotation Xrotation Yrotation
											JOINT LeftHandPinky3
											{
												OFFSET 2.46976 0.00000 0.00000
												CHANNELS 3 Zrotation Xrotation Yrotation
												End site
												{
													OFFSET 0.00000 0.00000 0.00000
												}
											}
										}
									}
								}
							}
						}
					}
					JOINT pCube4
					{
						OFFSET 0.00000 10.91090 1.10792
						CHANNELS 3 Zrotation Xrotation Yrotation
						End site
						{
							OFFSET 0.00000 0.00000 0.00000
						}
					}
				}
			}
		}
	}
	JOINT RightUpLeg
	{
		OFFSET -9.98441 0.00000 0.00000
		CHANNELS 3 Zrotation Xrotation Yrotation
		JOINT RightLeg
		{
			OFFSET 0.00000 -42.11790 0.00000
			CHANNELS 3 Zrotation Xrotation Yrotation
			JOINT RightFoot
			{
				OFFSET 0.00000 -45.00020 -0.00001
				CHANNELS 3 Zrotation Xrotation Yrotation
				JOINT RightForeFoot
				{
					OFFSET 0.00000 -3.74820 0.00000
					CHANNELS 3 Zrotation Xrotation Yrotation
					JOINT RightToeBase
					{
						OFFSET 0.00000 0.06325 14.43120
						CHANNELS 3 Zrotation Xrotation Yrotation
						End site
						{
							OFFSET 0.00000 0.00000 0.00000
						}
					}
				}
			}
		}
	}
	JOINT LeftUpLeg
	{
		OFFSET 9.98441 0.00000 0.00000
		CHANNELS 3 Zrotation Xrotation Yrotation
		JOINT LeftLeg
		{
			OFFSET 0.00000 -42.11800 0.00000
			CHANNELS 3 Zrotation Xrotation Yrotation
			JOINT LeftFoot
			{
				OFFSET 0.00000 -45.00070 0.00000
				CHANNELS 3 Zrotation Xrotation Yrotation
				JOINT LeftForeFoot
				{
					OFFSET 0.00000 -3.74824 0.00000
					CHANNELS 3 Zrotation Xrotation Yrotation
					JOINT LeftToeBase
					{
						OFFSET 0.00000 0.06325 14.43110
						CHANNELS 3 Zrotation Xrotation Yrotation
						End site
						{
							OFFSET 0.00000 0.00000 0.00000
						}
					}
				}
			}
		}
	}
}
MOTION
Frames: 4
Frame Time: 0.050000
-0.03776600705570217 0.04290125642542467 0.005165746236753034 0.04186818304194566 0.04782018985352295 0.0361939395803173 -3.5592598082240667 3.9612728585653127 -0.7848568506594354 -0.7580709717181412 4.498931543658185 0.34776422910663596 -0.8347096965565914 -0.18007307436779055 -1.5548215719883207 1.4031523146152445 0.4751368305104106 -0.8845873522859065 -0.9952109574706121 13.371774281700956 -1.1267905065995802 -0.21517699939202584 -0.9494668207856004 -3.3474675405287346 0.17254324783465053 -15.601264357500309 -0.2498156374049781 3.451724704503922 -0.8755663429274538 -14.699355100022366 61.87512406076087 14.973190015101144 14.181608949946822 34.560596546507945 4.713390528117986 80.20348056712187 21.057396570342366 0.03283686963113995 -7.664117557236233 4.51125647093066 -0.16352921529790085 -1.5898133058802966 0.015207969778014009 0.04036339310944597 -56.23753299722412 0.03199810091854672 -0.0033604228872262396 -56.242204426437404 -38.763646707747085 0.03513130071982377 0.019568583546777964 0.007560508472746595 -0.02639238868910343 -0.03213833425514343 0.0072187161205552845 -0.008060927223901553 0.020244661395196928 -36.71490886767308 -0.01833151164038972 0.04237340385379153 -0.04348388140196447 -0.047380570562705435 -0.01674895808333513 -0.03803317611181693 -0.002540583726341056 0.012055647007335354 -19.767346271198317 0.033590980616780765 -0.0285793605729133 -0.023237510284685854 -0.03853455626758338 0.0450448292214085 0.006031296482937576 0.044781627260652844 0.0065646882552916055 24.059512098783053 -0.02318797413921652 0.032602501494918536 28.855797018839173 0.022617357478379913 0.012651037689487278 28.866384107637604 0.02051225167792812 0.021713472859560313 1.9916370814494404 0.6837350582512801 13.374689642353118 -53.79721677797453 20.562760315863862 -39.49544352132042 9.35632405691679 -0.4371447085933162 -83.77883142372141 -18.400841968812607 10.545170895923793 -7.9302056442798445 -0.49403732425327695 0.029032275137307217 -8.166364709593854 -0.02142460140781595 0.018939335497244834 44.56243047364945 -0.01434198372240745 -0.0015139762926235114 44.53850147843424 12.493749935920837 0.02832160681131755 0.010873139696339998 -0.01833169839722202 -0.042833880763343234 -0.00406209438365855 0.01631962670303765 0.043302690355417055 -0.018416391504137413 11.072052055210328 0.03516502673113972 0.00045341489504382846 -0.0011367567388317916 0.02189751223463619 0.0017610807305174561 0.008254561777762197 0.033259819838752015 -0.009866749544299034 4.795649316944161 0.046164655417615504 -0.009374314988391091 -0.017109111286685432 -0.021237861895245753 0.010985099110577013 0.020160894046512286 -0.024828423695453534 -0.0367528592189019 -5.617612354517407 0.035214486816687186 0.009395548965680805 -6.736412901531403 0.02019273305514688 0.026399533979432076 -6.745288677161904 0.014856941933120066 -0.031110971624622633 -0.03749695730014662 0.019662108108372753 0.04168211775847197 8.015212779366033 3.455063816425958 -19.204619162796988 0.039253283261367816 10.386537611267428 0.028047635594572587 -5.606389699508921 -15.651526030170519 3.232630162743733 -0.026031478516189855 0.04579577238844967 0.030080081367830785 -5.972865228401251e-05 4.719846538735033 -0.0157943114313401 12.415702956479738 -8.232826249964592 6.883009056439983 0.021953565254969505 46.3862596210215 0.016700720349458718 -4.33606535171283 -14.767117048314908 -3.839169057291893 -0.018592611488019075 -0.007773121545030764 -0.013337327679837642 -0.027440618671231633 -10.727359084492507 0.028818118412564587 
0.021802785438143707 -0.03250569036070285 -0.0036278006681286137 -0.00867317854434676 -0.013523291410075003 -0.01808525653314452 -3.4720666651036627 3.966425995588801 -0.7827807071831352 -0.7446212828850841 4.5228717585469065 0.3659717046461954 -0.7743206646793845 -0.19267854968805342 -1.5080276332496356 1.418979412184101 0.33864948320376276 -0.9723328907637034 -0.9856397490271752 13.31724555329031 -1.2339552591104381 -0.24550887248421321 -1.0141912524611145 -3.5261178533530506 0.15880765621789455 -15.689787156363593 -0.24903009018063188 3.450029905322 -0.8697939673754902 -14.809318851753806 61.441529465561445 14.823532264394181 14.08582996998679 32.523842796600384 4.95028047285658 79.51932944448964 22.205238600045387 0.03415634822940919 -7.719146990989006 4.47885914945234 -0.12346184275606253 -1.5483304571392351 -0.0448719378815449 -0.01632672240287635 -56.25994774438898 -0.012767722386101122 0.016264706464759603 -56.228995948046574 -38.75260952354495 -0.00929361911570209 -0.038055087406316766 0.005658900805538991 -0.016193521068230098 0.040605425382337836 -0.0158630552827739 0.022573988676845024 -0.017663741471702955 -36.65366860231804 -0.005975966834266944 -0.031034147803390394 -0.01555208405577207 -0.038695070599042515 0.006534004441360143 -0.020383420219173963 0.02182596004144176 0.03300591208358705 -19.765078576661324 -0.025078270600807147 0.037545064075384896 -0.04034171573177746 0.004583065878015111 0.03841362016166206 0.022761939006755338 -0.03473268639715269 -0.016137817915000442 24.030834280221306 0.0007611020645230292 -0.006114885814388776 28.849151338620032 -0.032080447310095114 0.026431292709117978 28.85968962144797 0.002778645839895807 0.04266190193294639 2.109889815721587 0.7127775125352406 13.500179669850027 -53.33581618697952 18.386273885888507 -40.07050402425125 11.209640125172156 -1.4543107287740533 -83.41660366336055 -19.39888924446727 11.10707147235431 -8.49506808116744 -0.48391146098343796 0.09409612623617321 -8.12856123682777 -0.0008717349949546888 0.04564964137297519 44.58292112790374 0.024191814004217414 -0.003323652413877367 44.54929773964574 12.411320103869688 -0.012209980364563765 0.03578284414224605 -0.002180763647095086 0.0022846008191465253 0.013324296574373359 0.021319082251879236 0.016361742523932837 -0.03914423324467408 11.061431982585594 0.03950728616499925 0.029416257725205296 -0.023251878835388685 -0.012744858358364685 0.036330787583566386 0.022453623064759537 0.0331968748433786 0.021981993909782862 4.731467059118147 0.0031916359170557143 -0.04789259272054741 -0.029222230113153422 0.02411457198471083 -0.036648259411773305 0.014820244309650385 -0.004598907661714014 -0.016099933259507686 -5.587588749189842 0.044678388449069566 0.004071707978317289 -6.722549178507241 0.049504588847020026 0.02951868085345136 -6.72128951370652 -0.04863142728840229 -0.011972551843557626 -0.041257014700115134 -0.007320690654979255 0.002828473970047888 8.083640344911885 3.4601049994048036 -19.266645710890252 -0.022840369090209835 10.36378117725281 0.04382524404489194 -5.654858386051645 -15.619201054577402 3.214284061747081 0.025640427650732534 0.02176749105875949 0.04529780372626482 0.000386833940745816 4.725739186852735 0.025130219902459793 12.495896283523095 -8.260649388099951 6.870334703521354 0.04030879815224332 46.36989369247964 0.0031259552336915766 -4.346604292793023 -14.746150019078103 -3.803148659775475 -0.02655382613107528 -0.00908660961747774 0.03131431482541029 0.03357476511846855 -10.73167917323155 0.03652920384818842 
0.014102546240042826 -0.047200641531254674 0.0032418778076008705 -0.023297864177625156 0.0379675714736242 -0.04377867695567862 -3.3753218037100647 3.9025726078875125 -0.8397516805740073 -0.7408425562787038 4.5021943343123345 0.33582920319295834 -0.7574014323884424 -0.31151555348645293 -1.4731449016386309 1.4106877679359067 0.32148083318467957 -0.9569966866530163 -0.988921551824292 13.369254578269787 -1.1893559110578036 -0.20405613717798424 -1.1242338533599874 -3.4688399535199483 0.18024294990414572 -15.830079122669183 -0.31268825939139944 3.5491921641275748 -0.880344815413147 -14.750155878331391 61.012720859335374 14.860415413625978 14.00890846140248 30.74006918994793 5.710504699306316 79.10978748823483 23.243699414149553 0.08831926772096799 -7.733335801367829 4.505566847364758 -0.10097920234398433 -1.5751329844809467 -0.008843930536758011 0.033054160704350515 -56.187406794299456 -0.010611393554492686 -0.009445376039572639 -56.254794732601624 -38.787042251280106 -0.03639814077468151 0.019379180087896866 -0.006166737970026291 -0.020384436602014947 -0.003092848328556635 -0.03201548419020647 0.009896190194006746 -0.04715739556259377 -36.743010569995164 0.01423422692574413 0.012519981388937926 0.023829526327426485 0.03568584563129041 -0.006854359246116212 0.030978790954732112 0.03818692546632432 0.02408021404200705 -19.79758023115586 0.026668223139249464 0.04597252213971974 -0.026227899523760582 -0.03375537688958561 -0.00046529295960731593 0.033614895521072635 -0.04450570458560982 -0.023643300987335022 24.09380537522066 0.006100163086353986 0.012958443767818633 28.832071342292007 0.01101564070791171 -0.028428923673933598 28.861297228974582 0.014920512392117726 0.043195984330626054 2.3202469720465753 0.8036218065665998 13.48701150926391 -53.16162643168367 16.403301910020343 -40.89236544797206 12.615160051034925 -2.0947363097634044 -83.2546966840902 -20.30821512088849 11.761599847357385 -9.207530122166677 -0.46671070240645646 0.0709842328925547 -8.12061503398818 0.007466154347270277 -0.00813221956354792 44.58707123470792 0.03621089077066533 0.016360071718201297 44.59385215513086 12.476778714991996 0.02346824874746155 0.02114368730873049 -0.008511824315958531 0.049911257960156864 -0.011935332828936768 0.024215420836687027 -0.031553406630534485 0.023146954796644213 11.138404646024966 0.008425690388383814 -0.03818604184874248 -0.021658098152742698 0.015614068352970703 -0.0038059416343465477 0.007575857699760977 -0.012879107216861035 -0.04050022332807102 4.8119258020713565 -0.029405346697522334 -0.048002291800323275 0.03527575541028917 0.03203691507796706 -0.02733189248565958 -0.022054189323064254 -0.015453459949820624 0.011691787008651892 -5.588609667595502 0.01630182534339928 -0.0057932215803287645 -6.703594240675078 -0.026289966424923275 0.03270326411491281 -6.761486453371949 0.038297497896825246 -0.028665848609669885 0.036576555937537746 -0.03798663301610933 0.04067559872769194 8.02561913413677 3.5403145645269034 -19.222701704810056 0.03794520494322669 10.440224177433137 -0.022399180458070492 -5.577980584036211 -15.630744307186898 3.142883605780625 -0.008256212423194999 0.023004688405382414 0.004182007429157975 0.018798049867308837 4.701684825265605 -0.0057147466765332736 12.466627258794267 -8.27698633259488 6.894362536340266 0.04010990673469122 46.38896019750316 -0.029321096267156843 -4.330905563609186 -14.72168021066858 -3.831808436437802 -0.026950646530095018 -0.029272845913978055 0.03044336962772335 0.011308358699659718 -10.784230330665824 -0.002696408474378564 
0.04999225946656788 -0.00043248060454930884 -0.014462320463426118 -0.006629356877400243 -0.012635617172587375 -0.019225138568261003 -3.2603216713802436 3.874798418530556 -0.8371283637490707 -0.6822679839208926 4.505680979753475 0.2780096873840987 -0.7040136347066931 -0.40901376621895125 -1.4674367263850254 1.2801074105811416 0.19908179257079336 -0.9171839170865747 -1.0794555448743568 13.43860805967111 -1.1913907381851263 -0.2552925166575105 -1.113748609353922 -3.3383225254785986 0.134212904342576 -15.954762855080125 -0.21752780084746326 3.6181312761054754 -0.9073160194688954 -14.647069030937836 60.52071350086421 14.67503007304391 13.967503646880264 29.218519375581735 7.026934112834647 78.76773575367875 24.317718255851222 0.08992670293079011 -7.598016431901739 4.532324002776123 -0.09358724143951785 -1.6099804684471544 -0.01942751354441178 0.0017333939084192738 -56.22426139039205 0.004231378813219944 -0.027513010952402953 -56.19688111982013 -38.78237419693963 0.038443864088622416 0.008329408684909018 0.02435436632598659 -0.019446203276327453 -0.009782419230978784 0.04001027398936262 0.041581051219453345 0.029397890621310353 -36.72682206596103 -0.03289461115462765 -0.01126755515598145 -0.04621968995401206 0.01738959110456507 -0.03397675582437998 0.03600840580208097 -0.0071227911432549225 -0.03954775106983481 -19.78989403019431 0.029683044250540608 0.009850597920333774 -0.01373130213855372 0.022770280934077337 0.045281197506262895 0.02022677300290168 -0.017907208555607283 0.030485189860756337 24.06803708314048 -0.0003854057229146591 -0.018708957837280316 28.83852390659838 -0.016665008546119763 0.01699946168430521 28.829362494756783 0.00044401364121996964 0.040312175586181706 2.5887994905421103 0.8547042821861477 13.541037576177136 -53.10413909292181 14.463345062867937 -41.79896437383708 13.59871017987976 -2.4357988731833733 -83.08071087773227 -21.258724373029672 12.546048618391792 -10.000914666590775 -0.42714869484397366 0.10693431584478601 -8.089011873219444 -0.034394586223290544 -0.04721640232992723 44.58488534788447 0.02230095213317263 0.0004608724943819584 44.597745710101265 12.497574534360274 0.005264804319971339 0.0021134316183325443 0.03569324566901095 -0.005737298042252204 -0.025355329231222815 -0.04130640085011032 -0.03608682493689845 0.0349513447865567 11.128997714405774 0.027113241672656857 0.010741268117956674 -0.029798317760453826 0.0017982996546890742 -0.02290151118998114 -0.033218698664747096 -0.015638119417887383 -0.023878727638192914 4.803350515749496 0.00692451512869025 -0.006639718197657109 -0.03450360842278168 0.024737725540248192 0.023466228003734962 -0.0019685350210689057 -0.04143030618833084 0.030243722302687848 -5.5557716440291705 0.0023637344788327405 -0.022767237352458836 -6.692287699680255 0.012622137730543333 -0.032608553928109754 -6.682879963287977 0.03662181119222434 -0.04225076309473104 -0.016837834115448116 0.0194932558850097 0.014803721349529555 8.094011597154003 3.488851710130595 -19.220693797571297 0.012856716629916417 10.426774280943757 0.0038621462759112456 -5.649208204999361 -15.629240018948002 3.213448034415364 -0.016899158122293326 -0.027688795871543295 -0.023936181292822763 0.0017275967781776411 4.699677498268699 -0.011486679930936357 12.465666240544605 -8.207567837605835 6.908759490053066 0.01575227783541311 46.3923178903167 0.023918208409187014 -4.31137558232873 -14.790079452858892 -3.8170490306877145 -0.0025153238488334257 0.0022334518451763044 -0.03447237446770189 -0.03848360839447463 -10.739854666250354 -0.04733567009115115 
